# xmcd CD database file
#
# Track frame offsets:
#	150
#	22072
#	40768
#	59578
#	75626
#	89956
#	110752
#	128457
#	152928
#	169745
#	189680
#	209389
#	228971
#
# Disc length: 3294 seconds
#
# Revision: 1
# Processed by: cddbd v1.5.1PL0 Copyright (c) Steve Scherf et al.
# Submitted via: CDex 1.51
#
DISCID=b50cdc0d
DTITLE=Shawn Pittman - Stay
DYEAR=2004
DGENRE=Blues
TTITLE0=This Time
TTITLE1=Once Was King
TTITLE2=Feast Or Famine
TTITLE3=Down In The Valley
TTITLE4=You Move Me
TTITLE5=Under The Gun
TTITLE6=Always Runnin'
TTITLE7=Stay
TTITLE8=Close The Door
TTITLE9=You Reap What You Sow
TTITLE10=Slip Away
TTITLE11=Better Late Than Never
TTITLE12=Deals You Made
EXTD=YEAR: 2004
EXTT0=
EXTT1=
EXTT2=
EXTT3=
EXTT4=
EXTT5=
EXTT6=
EXTT7=
EXTT8=
EXTT9=
EXTT10=
EXTT11=
EXTT12=
PLAYORDER=
